<svg xmlns="http://www.w3.org/2000/svg" xmlns:xlink="http://www.w3.org/1999/xlink" width="195" height="45" viewBox="0 0 195 45">
    <defs>
        <path id="udvavej9oa" d="M0.548 0.527L41.274 0.527 41.274 40.818 0.548 40.818z"/>
        <path id="avdhrj2hpc" d="M0 44.93L193.553 44.93 193.553 0.568 0 0.568z"/>
    </defs>
    <g fill="none" fill-rule="evenodd">
        <path fill="#228BC4" d="M147.724 34.377l-7.888-13.663 7.888-13.663h15.777l3.21 5.558c.108.188.308.305.525.305h6.084c.467 0 .759-.507.525-.911l-5.016-8.69c-.978-1.692-2.8-2.745-4.755-2.745h-16.923c-1.955 0-3.776 1.053-4.754 2.745l-8.462 14.657c-.977 1.693-.977 3.796 0 5.49l8.462 14.655c.978 1.694 2.8 2.745 4.754 2.745h9.308c.468 0 .76-.506.526-.91l-3.042-5.27c-.108-.187-.308-.303-.525-.303h-5.694z"/>
        <g transform="translate(152.279 .041)">
            <mask id="y5rmn5j4sb" fill="#fff">
                <use xlink:href="#udvavej9oa"/>
            </mask>
            <path fill="#1F4280" d="M26.752 7.01l7.888 13.663-7.888 13.663H10.975l-3.21-5.559c-.107-.187-.309-.304-.525-.304H1.156c-.467 0-.759.506-.525.91l5.016 8.69c.978 1.693 2.8 2.745 4.755 2.745h16.923c1.954 0 3.776-1.052 4.754-2.745l8.462-14.656c.977-1.693.977-3.797 0-5.49L32.078 3.272C31.101 1.578 29.28.527 27.325.527h-9.308c-.468 0-.76.506-.527.91l3.043 5.27c.108.187.308.303.525.303h5.694z" mask="url(#y5rmn5j4sb)"/>
        </g>
        <path fill="#1F4281" d="M81.904 26.624L81.904 40.866 83.979 40.866 83.979 35.313 87.895 41.052 89.941 40.28 86.321 35.393 89.07 31.925 87.224 30.995 83.979 35.271 83.979 26.624zM68.575 40.867L66.263 40.867 66.263 28.506 61.509 28.506 61.509 26.624 73.237 26.624 73.237 28.506 68.575 28.506zM103.833 40.867h-2.182V32.69h-1.467v-1.834h1.467v-.184c0-1.458.336-2.486 1.008-3.11.656-.612 1.525-.938 2.577-.938.383 0 1.664.175 1.664.175v1.76s-1.106-.13-1.386-.13c-.475 0-.894.122-1.224.352-.213.13-.457.533-.457 1.587v.488h2.931v1.834h-2.931v8.177z"/>
        <mask id="evlm2if3xd" fill="#fff">
            <use xlink:href="#avdhrj2hpc"/>
        </mask>
        <path fill="#1F4281" d="M13.434 40.87L15.54 40.87 15.54 26.624 13.434 26.624zM5.236 27.332L0 40.87h1.993l1.358-3.798h5.052l1.23 3.798h2.447L7.257 27.332h-2.02zm.74 2.396l1.985 6.004H3.825l2.152-6.004zM55.017 40.87L57.123 40.87 57.123 31.301 55.017 31.301zM55.017 29.711L57.123 29.711 57.123 27.848 55.017 27.848zM39.972 29.711L42.078 29.711 42.078 27.848 39.972 27.848zM44.207 26.624v14.242h2.107v-5.734c0-1.619.929-2.672 2.35-2.672 1.334 0 2.112.876 2.112 2.502v5.904h2.108V34.65c0-2.39-1.086-3.595-3.206-3.595-1.206 0-2.321.49-3.09 1.36l-.298.335v-6.126h-2.083zM116.73 40.867V31.33h-2.107v5.77c0 1.6-.93 2.656-2.359 2.656-1.334 0-2.112-.886-2.112-2.475V31.33h-2.107v6.228c0 2.397 1.084 3.593 3.204 3.593 1.223 0 2.321-.48 3.083-1.353l.306-.332v1.401h2.091zM20.28 27.332v13.534h2.106V35.16h1.77s2.642 5.707 2.756 5.94c.205-.047 2.052-.4 2.42-.468-.213-.42-3.085-5.89-3.085-5.89l.147-.089c1.427-.895 2.144-2.146 2.144-3.87 0-2.168-1.525-3.45-4.06-3.45H20.28zm2.106 1.34h1.741c1.42 0 2.276.92 2.276 2.351 0 1.282-.803 2.796-2.581 2.796h-1.436v-5.146zM39.973 31.299v9.656c0 1.088-.169 2.036-.366 2.524-.168.38-.543.657-.962.78v.67c2.41-.033 3.434-1.253 3.434-4.062V31.3h-2.106zM34.362 31.055c-1.314 0-2.367.396-3.375 1.22.123.186.491.742.628.963.747-.656 1.504-.947 2.426-.947.963 0 1.633.726 1.77 1.695l.015.15-2.242.692c-2.29.698-3.365 1.798-3.365 3.448 0 1.646 1.058 2.838 2.54 2.838 1.999 0 3.136-1.894 3.136-1.894v1.647h2.16v-6.285c0-2.336-1.237-3.527-3.693-3.527m.626 7.967c-.383.445-.87.671-1.33.671-.73 0-1.296-.718-1.296-1.617 0-1.234.656-2.057 1.963-2.474l1.378-.485.232-.079.014.243c.137 2.17-.542 3.275-.961 3.74M75.91 31.055c-1.319 0-2.373.396-3.378 1.22.129.186.487.742.624.963.749-.656 1.51-.947 2.442-.947.947 0 1.625.726 1.763 1.695l.007.15-2.243.692c-2.273.698-3.357 1.798-3.357 3.448 0 1.646 1.06 2.838 2.533 2.838 1.999 0 3.144-1.894 3.144-1.894v1.647h2.15v-6.285c0-2.336-1.234-3.527-3.684-3.527m.618 7.967c-.395.445-.855.671-1.327.671-.733 0-1.297-.718-1.297-1.617 0-1.234.656-2.057 1.963-2.474l1.386-.485.224-.079.022.243c.137 2.17-.55 3.275-.97 3.74M95.188 31.055c-1.314 0-2.366.396-3.374 1.22.123.186.49.742.628.963.746-.656 1.504-.947 2.425-.947.963 0 1.633.726 1.77 1.695l.015.15-2.242.692c-2.29.698-3.365 1.798-3.365 3.448 0 1.646 1.058 2.838 2.54 2.838 1.999 0 3.136-1.894 3.136-1.894v1.647h2.16v-6.285c0-2.336-1.237-3.527-3.693-3.527m.626 7.967c-.383.445-.87.671-1.33.671-.73 0-1.296-.718-1.296-1.617 0-1.234.656-2.057 1.963-2.474l1.378-.485.232-.079.014.243c.137 2.17-.542 3.275-.961 3.74" mask="url(#evlm2if3xd)"/>
        <path fill="#1F4281" d="M118.103 5.408v7.044c0 2.012-.96 2.406-1.747 2.406h-2.99v-.646c0-4.757-2.984-8.192-7.377-8.678l7.506-4.956h-2.817l-7.643 5.065v1.841l.072.032s.691-.392 1.92-.392c2.657 0 5.474 2.487 5.474 7.048l-.012.686h-8.755c-.786 0-1.731-.394-1.731-2.406V.568h-2.58v11.797c0 1.14.298 2.099.896 2.873.674.861 1.59 1.288 2.809 1.288h15.858c1.226 0 2.14-.427 2.8-1.288.6-.774.913-1.734.913-2.873V5.408h-2.596z" mask="url(#evlm2if3xd)"/>
    </g>
</svg>
