<svg width="24" height="24" viewBox="0 0 24 24" fill="none" xmlns="http://www.w3.org/2000/svg">
<path d="M23.9132 17.4569C23.7478 17.0034 23.4291 16.7583 23.0675 16.5622C23.0001 16.5254 22.9388 16.4886 22.8836 16.4641C22.7733 16.4089 22.663 16.3538 22.5527 16.2986C21.425 15.698 20.5425 14.9503 19.9358 14.0556C19.7642 13.8043 19.611 13.5346 19.4884 13.2589C19.4332 13.1118 19.4394 13.026 19.4761 12.9463C19.5129 12.885 19.5619 12.836 19.6232 12.7931C19.8193 12.6644 20.0155 12.5357 20.1503 12.4499C20.3893 12.2905 20.5854 12.168 20.708 12.0822C21.1676 11.7573 21.4924 11.4141 21.6947 11.028C21.9827 10.4887 22.0195 9.85749 21.7989 9.28753C21.4924 8.47855 20.7325 7.98214 19.8071 7.98214C19.611 7.98214 19.421 8.00052 19.2249 8.04342C19.1758 8.05568 19.1207 8.06794 19.0716 8.0802C19.0778 7.52862 19.0655 6.94641 19.0165 6.37032C18.8449 4.35401 18.134 3.2999 17.3985 2.46028C16.9266 1.93322 16.3751 1.48583 15.7561 1.1365C14.6407 0.499132 13.3721 0.174316 11.9931 0.174316C10.6142 0.174316 9.35171 0.499132 8.2363 1.1365C7.61732 1.48583 7.06574 1.93322 6.59384 2.46028C5.85841 3.2999 5.15362 4.36014 4.9759 6.37032C4.92687 6.94641 4.91461 7.52862 4.92074 8.0802C4.87171 8.06794 4.82268 8.05568 4.76752 8.04342C4.57754 8.00052 4.38142 7.98214 4.19144 7.98214C3.26602 7.98214 2.50607 8.48468 2.19965 9.28753C1.97902 9.85749 2.01579 10.4887 2.30383 11.028C2.50607 11.4141 2.83089 11.7573 3.29053 12.0822C3.41311 12.168 3.60309 12.2905 3.84824 12.4499C3.97694 12.5357 4.16692 12.6583 4.35691 12.7808C4.42432 12.8237 4.47948 12.8789 4.52238 12.9463C4.55915 13.026 4.56528 13.1118 4.50399 13.2711C4.38142 13.5408 4.23434 13.8043 4.06274 14.0494C3.46826 14.9197 2.61026 15.6613 1.51937 16.2557C0.943285 16.5622 0.342683 16.7644 0.085282 17.4569C-0.104704 17.9779 0.0178675 18.5662 0.502026 19.0688C0.679755 19.2526 0.888127 19.412 1.11489 19.5345C1.58679 19.7919 2.08933 19.9942 2.61639 20.1351C2.7267 20.1658 2.82476 20.2087 2.91669 20.27C3.09442 20.4232 3.0699 20.6561 3.30279 20.9993C3.41923 21.177 3.57245 21.3302 3.74405 21.4528C4.24047 21.796 4.79817 21.8144 5.38651 21.8389C5.9197 21.8573 6.5203 21.8818 7.21283 22.1085C7.50087 22.2005 7.79505 22.3843 8.13825 22.5988C8.96561 23.1075 10.0933 23.8 11.987 23.8C13.8807 23.8 15.0145 23.1014 15.848 22.5927C16.1912 22.3843 16.4854 22.2005 16.7612 22.1085C17.4476 21.8818 18.0543 21.8573 18.5875 21.8389C19.1758 21.8144 19.7335 21.796 20.23 21.4528C20.4383 21.3057 20.6099 21.1218 20.7325 20.9012C20.9041 20.6132 20.898 20.4109 21.0573 20.27C21.1431 20.2087 21.2412 20.1658 21.3392 20.1413C21.8663 20.0003 22.3811 19.7981 22.8591 19.5345C23.0981 19.4058 23.3188 19.2342 23.5026 19.032L23.5087 19.0259C23.9868 18.5356 24.1032 17.9595 23.9132 17.4569ZM22.234 18.3578C21.2105 18.9217 20.5241 18.8604 19.9971 19.2036C19.5436 19.4916 19.8132 20.1167 19.4884 20.3435C19.0839 20.6193 17.895 20.3251 16.3628 20.8338C15.0942 21.2505 14.2914 22.4579 12.0115 22.4579C9.73168 22.4579 8.94722 21.2567 7.66022 20.8338C6.12807 20.3251 4.93912 20.6254 4.53464 20.3435C4.20982 20.1167 4.47335 19.4916 4.02596 19.2036C3.49278 18.8604 2.8125 18.9217 1.78903 18.3578C1.13327 17.9963 1.50711 17.7756 1.72162 17.6714C5.43554 15.8758 6.03001 13.0995 6.05453 12.8911C6.08517 12.6399 6.12194 12.4437 5.84616 12.1925C5.58263 11.9473 4.40594 11.218 4.07499 10.9913C3.53568 10.6113 3.29666 10.2375 3.47439 9.77169C3.59696 9.453 3.89726 9.33043 4.20982 9.33043C4.30788 9.33043 4.40594 9.34268 4.50399 9.36107C5.09847 9.48977 5.67456 9.78394 6.0055 9.86974C6.0484 9.882 6.08517 9.88813 6.12807 9.88813C6.3058 9.88813 6.36709 9.7962 6.35483 9.59396C6.31806 8.94433 6.22613 7.68184 6.33031 6.49902C6.47127 4.87494 6.9922 4.06597 7.61732 3.35505C7.91762 3.01185 9.32107 1.52873 12.0115 1.52873C14.702 1.52873 16.1054 3.00572 16.4057 3.34893C17.0308 4.05984 17.5518 4.86881 17.6927 6.49289C17.7969 7.67571 17.705 8.9382 17.6621 9.58783C17.6498 9.80233 17.7111 9.882 17.8888 9.882C17.9317 9.882 17.9685 9.87587 18.0114 9.86361C18.3423 9.78394 18.9184 9.48364 19.5129 9.35494C19.611 9.33043 19.709 9.3243 19.8071 9.3243C20.1196 9.3243 20.4199 9.44687 20.5425 9.76556C20.7202 10.2313 20.4812 10.6052 19.9419 10.9851C19.6171 11.2119 18.4404 11.9412 18.1707 12.1863C17.895 12.4376 17.9317 12.6337 17.9624 12.885C17.9869 13.0934 18.5814 15.8696 22.2953 17.6653C22.5159 17.7695 22.8836 17.9963 22.234 18.3578Z" fill="#98A2B3"/>
</svg>
