<svg id="Layer_1" xmlns="http://www.w3.org/2000/svg" version="1.1" viewBox="0 0 171.7 52.1">
  <defs>
    <style>
      .st0 {
        fill: #d7d2e9;
      }

      .st1 {
        fill: #7061ab;
      }
    </style>
  </defs>
  <path class="st0" d="M44.6,31.4c1,1.8,2,4,3.6,5.3,2.2,1.8,5,2.2,6.4,2.2,6.3,0,9.8-2.4,9.8-7.2s-2.1-10.9-10.4-14.3c-7.1-2.9,1.2-11.5,1.2-11.5,4.3,0,8,3,10.8,6,6.4,6.9,10.2,17.3,10.2,23.1s-8.2,12.3-15,12.3-7.8-1.4-10.4-4c-2.8-2.8-4.7-6.9-6.3-12"/>
  <path class="st0" d="M36.5,16.4c3.3,9.3,5.3,14.2,6.3,18.8.7,2.9-2.8,12.8-4.6,9.2-.6-1.1-4.2,1.8-5.2,0-3.6-6.8-7.7-27.5-13-27.5-.2,0,9.6-12.3,16.4-.4"/>
  <path class="st1" d="M6.8,47.4c8.8,0,10.5-10.3,13.6-19.8,2.6-7.8,5.2-15,9.7-15s3.7.8,5.3,2.4c.4.4.8.8,1.1,1.3-2.6-6.5-7.2-10.3-13-10.3-9.8,0-13.2,11.3-16.2,21.2-2.8,9.3-6.1,13.9-6.2,15.9-.1,1.7,2.5,4.2,5.8,4.2"/>
  <path class="st1" d="M68.5,15c0-.1-2.6-2.4-5.7-2.4s-4.8,1.2-7,5.3c-.1.2-.2.4-.3.6-1.2,2.6-2.3,5.8-3.4,9-1.1,3.3-2,6.8-3.1,9.8-.3.8-.6,1.6-.9,2.3-2,4.4-4.6,7.6-9.5,7.6s-5.9-2.5-5.8-4.2c.2-2,3.4-6.6,6.2-15.9,2.9-9.4,6.4-21.3,16.2-21.2,4.4,0,9.3,2.4,13.3,9"/>
  <path class="st0" d="M124.7,22.6c-2,0-3.6-1.6-3.6-3.6s1.6-3.6,3.6-3.6,3.6,1.6,3.6,3.6-1.6,3.6-3.6,3.6M124.7,12.7c-3.5,0-6.3,2.8-6.3,6.3s.4,2.6,1.1,3.6h-4.2c-1.2,0-2.1-1-2.1-2.1h0v-7.2h-2.7v7.2c0,1.2-1,2.1-2.1,2.1h-3.7c-1.2,0-2.1-1-2.1-2.1h0v-7.2h-2.7v7.2c0,1.2-1,2.1-2.1,2.1h-5.1v-14.3h-3v17h8.1c1.4,0,2.6-.6,3.5-1.5.9.9,2.1,1.5,3.5,1.5h3.7c1.4,0,2.6-.6,3.5-1.5.9.9,2.1,1.5,3.5,1.5h9.4c3.5,0,6.3-2.8,6.3-6.3s-2.8-6.3-6.3-6.3"/>
  <path class="st0" d="M101.1,12c1,0,1.8-.8,1.8-1.8s-.8-1.8-1.8-1.8-1.8.8-1.8,1.8.8,1.8,1.8,1.8"/>
  <path class="st0" d="M114.2,26.6c-1,0-1.8.8-1.8,1.8s.8,1.8,1.8,1.8,1.8-.8,1.8-1.8-.8-1.8-1.8-1.8"/>
  <path class="st0" d="M110,26.6c-1,0-1.8.8-1.8,1.8s.8,1.8,1.8,1.8,1.8-.8,1.8-1.8-.8-1.8-1.8-1.8"/>
  <path class="st0" d="M123.4,39.7c-.1-2-1.7-3.3-3.9-3.3s-3.5,1.2-3.9,3.3h7.8ZM115.7,41.9c.4,2.1,2.1,3.3,4.3,3.3s2.9-.7,3.7-1.8l2.3,1.5c-1.1,1.7-3.4,2.8-6,2.8-4.2,0-7.1-3-7.1-6.9s2.9-6.9,6.8-6.9,6.8,2.7,6.8,6.5,0,1,0,1.4h-10.6Z"/>
  <path class="st0" d="M138.5,39.7c-.1-2-1.7-3.3-3.9-3.3s-3.5,1.2-3.9,3.3h7.8ZM130.8,41.9c.4,2.1,2.1,3.3,4.3,3.3s2.9-.7,3.7-1.8l2.3,1.5c-1.1,1.7-3.4,2.8-6,2.8-4.2,0-7.1-3-7.1-6.9s2.9-6.9,6.8-6.9,6.8,2.7,6.8,6.5,0,1,0,1.4h-10.6Z"/>
  <path class="st0" d="M110.7,40v7.4h-3v-7.4c0-1.9-1.4-3.4-3.1-3.4s-3.1,1.5-3.1,3.4v7.4h-3v-7.4h0c0-1.9-1.4-3.4-3.1-3.4s-3.1,1.5-3.1,3.4v7.4h-3v-7.4c0-3.3,2.7-6,6.1-6s3.5.8,4.6,2.1c1.1-1.3,2.7-2.1,4.6-2.1,3.3,0,6.1,2.7,6.1,6"/>
  <polyline class="st0" points="98.6 39.9 98.6 40 98.6 40 98.6 39.9"/>
  <path class="st0" d="M156,40c0-3.3-2.8-6-6.3-6s-6.3,2.7-6.3,6v7.4h3v-7.4h0c0-1.9,1.5-3.4,3.3-3.4s3.3,1.5,3.3,3.4h0v7.4h3v-7.4"/>
  <path class="st0" d="M171.5,40.9v6.5h-3v-6.6c0-2.6-1.5-4.3-4-4.3s-4.1,1.9-4.1,4.3,1,4.3,4.4,4.3,1.6-.1,2.6-.4c0,.8,0,2,0,2.6-.8.3-1.7.4-2.7.4-3.2,0-7-1.7-7-6.9s.1-6.9,6.9-6.9,7,4,7,6.9"/>
</svg>
